<svg version="1.2" xmlns="http://www.w3.org/2000/svg" viewBox="0 0 50 39" width="50" height="39"><style>.a{fill:#4073b5}.b{fill:#f7b600}</style><path fill-rule="evenodd" class="a" d="m24.6 11.9c0.9 4.9 1.5 7.3 1.5 7.3l3.2-6.4 0.4-0.9c0 0 3.6 0 3.7 0-2.5 4.8-4.3 8.7-6.1 12.3-1.1 2.2-1.7 3.5-2.1 4.1-0.4 0.8-0.1 0.7-0.8 0.7q-0.1 0-0.2 0c-1 0-2 0-3 0 0.3-0.5 0.9-1.7 1.4-2.7l1.3-2.6c0 0-1-3.9-3-11.8z"/><path fill-rule="evenodd" class="a" d="m45.4 12.4c3.5 0 2.1 0 2.8 0 0.2 0 0.2 0 0.3 0 0.2 0 0.5 0.3 0.4 0.5 0 0.1 0 0 0 0.1-0.2 1.1-0.2 1.5-0.2 1.7 0 0.2-0.2 0.5-0.7 0.5-2.6-0.1-2.8 0.5-2.8 1.6l-0.6 8.4h-3.2c0.1-1.5 0.4-7.6 0.5-9.5 0.1-1.2 0.5-3.3 3.5-3.3z"/><path fill-rule="evenodd" class="a" d="m37 14.1q0 0 0.1-0.1c0-1.7 0.8-1.6 3.3-1.5 0 1-0.4 6.7-0.6 10.3-0.1 1-0.1 1.9-0.2 2.4h-3.2c0.1-1.5 0.5-9.8 0.6-11.1z"/><path fill-rule="evenodd" class="a" d="m39 10.7c-1.1 0-1.9-0.9-1.9-2 0-1.1 0.8-2 1.9-2 1.1 0 2 0.9 2 2 0 1.1-0.9 2-2 2z"/><path fill-rule="evenodd" class="b" d="m32.3 25.2c-0.9 0-1.7-0.8-1.7-1.8 0-1 0.8-1.8 1.7-1.8 1 0 1.8 0.8 1.8 1.8 0 1-0.8 1.8-1.8 1.8z"/><path fill-rule="evenodd" class="a" d="m4.9 25.2c-2.2 0-3.2 0-3.2 0 0.7-6.5 1.2-10.1 1.2-10.1 0.7-8 7.4-8.8 10.2-5.7 2.1 2.4 1.2 6.8-1.4 8.6-1.5 1.1-3.6 1.4-6 1.2zm1.2-9.2c2.8 0.3 4.2-0.5 4.6-1.9 0.6-1.5 0.1-3.2-1.7-3.1-2.4 0.1-2.7 3.2-2.9 5z"/><path fill-rule="evenodd" class="a" d="m17.6 17.3q0-0.1 0-0.1c0 0-0.7 0.2 0 0 0-1.8-0.6-2.8-2.5-3.2v-2c3.7-0.7 6.1 1.9 6.1 5.2 0 9.8-11.7 9.9-11.1 4 0.3-3 4.6-3.5 6.5-3.8m-0.6 4.5c0.5-0.5 1.1-1.3 1.3-2.4q-0.5 0.1-0.9 0.2c-2.2 0.3-3.3 1.1-3.2 1.9 0.2 1.3 2 1.1 2.8 0.3z"/></svg>